<mxfile host="app.diagrams.net" modified="2022-02-28T02:19:36.705Z" agent="5.0 (Windows NT 10.0; Win64; x64) AppleWebKit/537.36 (KHTML, like Gecko) Chrome/95.0.4638.69 Safari/537.36" etag="hy-Gmw3LUFAzVD5aWtg1" version="16.6.2" type="github">
  <diagram id="xG3w_724dLTecuy7xmzs" name="Page-1">
    <mxGraphModel dx="1422" dy="763" grid="1" gridSize="10" guides="1" tooltips="1" connect="1" arrows="1" fold="1" page="1" pageScale="1" pageWidth="827" pageHeight="1169" math="0" shadow="0">
      <root>
        <mxCell id="0" />
        <mxCell id="1" parent="0" />
        <mxCell id="dZcqDcrYmBspdUDfE1Yf-3" value="" style="edgeStyle=orthogonalEdgeStyle;rounded=0;orthogonalLoop=1;jettySize=auto;html=1;" edge="1" parent="1" source="dZcqDcrYmBspdUDfE1Yf-1">
          <mxGeometry relative="1" as="geometry">
            <mxPoint x="100" y="180" as="targetPoint" />
          </mxGeometry>
        </mxCell>
        <mxCell id="dZcqDcrYmBspdUDfE1Yf-1" value="拖拽开始&lt;br&gt;设置mapMoveType = &quot;adsorbent&quot;" style="rounded=1;whiteSpace=wrap;html=1;" vertex="1" parent="1">
          <mxGeometry x="40" y="40" width="120" height="60" as="geometry" />
        </mxCell>
        <mxCell id="dZcqDcrYmBspdUDfE1Yf-6" value="" style="edgeStyle=orthogonalEdgeStyle;rounded=0;orthogonalLoop=1;jettySize=auto;html=1;" edge="1" parent="1" source="dZcqDcrYmBspdUDfE1Yf-4" target="dZcqDcrYmBspdUDfE1Yf-5">
          <mxGeometry relative="1" as="geometry" />
        </mxCell>
        <mxCell id="dZcqDcrYmBspdUDfE1Yf-9" value="" style="edgeStyle=orthogonalEdgeStyle;rounded=0;orthogonalLoop=1;jettySize=auto;html=1;" edge="1" parent="1" source="dZcqDcrYmBspdUDfE1Yf-4" target="dZcqDcrYmBspdUDfE1Yf-8">
          <mxGeometry relative="1" as="geometry" />
        </mxCell>
        <mxCell id="dZcqDcrYmBspdUDfE1Yf-4" value="拖拽结束，判断附近是否已经有现有的推荐点" style="rhombus;whiteSpace=wrap;html=1;" vertex="1" parent="1">
          <mxGeometry x="60" y="180" width="80" height="80" as="geometry" />
        </mxCell>
        <mxCell id="dZcqDcrYmBspdUDfE1Yf-13" value="" style="edgeStyle=orthogonalEdgeStyle;rounded=0;orthogonalLoop=1;jettySize=auto;html=1;" edge="1" parent="1" source="dZcqDcrYmBspdUDfE1Yf-5" target="dZcqDcrYmBspdUDfE1Yf-12">
          <mxGeometry relative="1" as="geometry" />
        </mxCell>
        <mxCell id="dZcqDcrYmBspdUDfE1Yf-5" value="吸附，指针定位到推荐点，清空这个点的文字inmarker.setLabel({})，转为在气泡上展示" style="whiteSpace=wrap;html=1;" vertex="1" parent="1">
          <mxGeometry x="210" y="190" width="120" height="60" as="geometry" />
        </mxCell>
        <mxCell id="dZcqDcrYmBspdUDfE1Yf-7" value="是" style="text;html=1;strokeColor=none;fillColor=none;align=center;verticalAlign=middle;whiteSpace=wrap;rounded=0;" vertex="1" parent="1">
          <mxGeometry x="140" y="190" width="60" height="30" as="geometry" />
        </mxCell>
        <mxCell id="dZcqDcrYmBspdUDfE1Yf-11" style="edgeStyle=orthogonalEdgeStyle;rounded=0;orthogonalLoop=1;jettySize=auto;html=1;exitX=1;exitY=0.5;exitDx=0;exitDy=0;entryX=0.5;entryY=1;entryDx=0;entryDy=0;" edge="1" parent="1" source="dZcqDcrYmBspdUDfE1Yf-14" target="dZcqDcrYmBspdUDfE1Yf-5">
          <mxGeometry relative="1" as="geometry" />
        </mxCell>
        <mxCell id="dZcqDcrYmBspdUDfE1Yf-15" value="" style="edgeStyle=orthogonalEdgeStyle;rounded=0;orthogonalLoop=1;jettySize=auto;html=1;" edge="1" parent="1" source="dZcqDcrYmBspdUDfE1Yf-8" target="dZcqDcrYmBspdUDfE1Yf-14">
          <mxGeometry relative="1" as="geometry" />
        </mxCell>
        <mxCell id="dZcqDcrYmBspdUDfE1Yf-8" value="清空现有推荐点，&lt;br&gt;重新查找推荐点，在地图上展示" style="whiteSpace=wrap;html=1;" vertex="1" parent="1">
          <mxGeometry x="40" y="320" width="120" height="60" as="geometry" />
        </mxCell>
        <mxCell id="dZcqDcrYmBspdUDfE1Yf-10" value="否" style="text;html=1;strokeColor=none;fillColor=none;align=center;verticalAlign=middle;whiteSpace=wrap;rounded=0;" vertex="1" parent="1">
          <mxGeometry x="40" y="270" width="60" height="30" as="geometry" />
        </mxCell>
        <mxCell id="dZcqDcrYmBspdUDfE1Yf-12" value="结束" style="ellipse;whiteSpace=wrap;html=1;" vertex="1" parent="1">
          <mxGeometry x="410" y="190" width="120" height="60" as="geometry" />
        </mxCell>
        <mxCell id="dZcqDcrYmBspdUDfE1Yf-14" value="系统自动匹配离拖拽定位最近的推荐点" style="whiteSpace=wrap;html=1;" vertex="1" parent="1">
          <mxGeometry x="40" y="440" width="120" height="60" as="geometry" />
        </mxCell>
      </root>
    </mxGraphModel>
  </diagram>
</mxfile>
